<svg width="22" height="22" viewBox="0 0 22 22" fill="none" xmlns="http://www.w3.org/2000/svg">
<path d="M10.2158 1.17281C10.307 0.222744 11.693 0.222744 11.7842 1.17281V1.17281C11.8619 1.98268 12.9668 2.15768 13.291 1.41146V1.41146C13.6712 0.536062 14.9895 0.964381 14.7826 1.89612V1.89612C14.6062 2.69036 15.603 3.19822 16.1418 2.5887V2.5887C16.774 1.87366 17.8954 2.68837 17.4107 3.51058V3.51058C16.9975 4.21145 17.7886 5.00246 18.4894 4.5893V4.5893C19.3116 4.10461 20.1263 5.22597 19.4113 5.85815V5.85815C18.8018 6.39705 19.3096 7.39378 20.1039 7.21742V7.21742C21.0356 7.01053 21.4639 8.32876 20.5885 8.70905V8.70905C19.8423 9.03321 20.0173 10.1381 20.8272 10.2158V10.2158C21.7773 10.307 21.7773 11.693 20.8272 11.7842V11.7842C20.0173 11.8619 19.8423 12.9668 20.5885 13.291V13.291C21.4639 13.6712 21.0356 14.9895 20.1039 14.7826V14.7826C19.3096 14.6062 18.8018 15.603 19.4113 16.1418V16.1418C20.1263 16.774 19.3116 17.8954 18.4894 17.4107V17.4107C17.7886 16.9975 16.9975 17.7886 17.4107 18.4894V18.4894C17.8954 19.3116 16.774 20.1263 16.1418 19.4113V19.4113C15.603 18.8018 14.6062 19.3096 14.7826 20.1039V20.1039C14.9895 21.0356 13.6712 21.4639 13.291 20.5885V20.5885C12.9668 19.8423 11.8619 20.0173 11.7842 20.8272V20.8272C11.693 21.7773 10.307 21.7773 10.2158 20.8272V20.8272C10.1381 20.0173 9.03321 19.8423 8.70905 20.5885V20.5885C8.32876 21.4639 7.01053 21.0356 7.21742 20.1039V20.1039C7.39378 19.3096 6.39705 18.8018 5.85815 19.4113V19.4113C5.22597 20.1263 4.10461 19.3116 4.5893 18.4894V18.4894C5.00246 17.7886 4.21145 16.9975 3.51058 17.4107V17.4107C2.68837 17.8954 1.87366 16.774 2.5887 16.1418V16.1418C3.19822 15.603 2.69036 14.6062 1.89612 14.7826V14.7826C0.964381 14.9895 0.536062 13.6712 1.41146 13.291V13.291C2.15768 12.9668 1.98268 11.8619 1.17281 11.7842V11.7842C0.222744 11.693 0.222744 10.307 1.17281 10.2158V10.2158C1.98268 10.1381 2.15768 9.03321 1.41146 8.70905V8.70905C0.536062 8.32876 0.964381 7.01053 1.89612 7.21742V7.21742C2.69036 7.39378 3.19822 6.39705 2.5887 5.85815V5.85815C1.87366 5.22597 2.68837 4.10461 3.51058 4.5893V4.5893C4.21145 5.00246 5.00246 4.21145 4.5893 3.51058V3.51058C4.10461 2.68837 5.22597 1.87366 5.85815 2.5887V2.5887C6.39705 3.19822 7.39378 2.69036 7.21742 1.89612V1.89612C7.01053 0.964381 8.32876 0.536062 8.70905 1.41146V1.41146C9.03321 2.15768 10.1381 1.98268 10.2158 1.17281V1.17281Z" fill="#BABABA"/>
</svg>
