<svg width="20" height="22" viewBox="0 0 20 22" fill="none" xmlns="http://www.w3.org/2000/svg">
<path d="M0 12L5 14V22L0 20V12Z" fill="#BE212A"/>
<path d="M9.5 19.6615V12.7385L5.5 14.3385V21.2615L9.5 19.6615Z" stroke="#BE212A"/>
<path d="M9.5 12.3385L5 10.5385L0.5 12.3385V12.6615L5 14.4615L9.5 12.6615V12.3385Z" stroke="#BE212A"/>
<path d="M10 12L15 14V22L10 20V12Z" fill="#BE212A"/>
<path d="M19.5 19.6615V12.7385L15.5 14.3385V21.2615L19.5 19.6615Z" stroke="#BE212A"/>
<path d="M19.5 12.3385L15 10.5385L10.5 12.3385V12.6615L15 14.4615L19.5 12.6615V12.3385Z" stroke="#BE212A"/>
<path d="M5 2L10 4V12L5 10V2Z" fill="#BE212A"/>
<path d="M14.5 9.66148V2.73852L10.5 4.33852V11.2615L14.5 9.66148Z" stroke="#BE212A"/>
<path d="M14.5 2.33852L10 0.538516L5.5 2.33852V2.66148L10 4.46148L14.5 2.66148V2.33852Z" stroke="#BE212A"/>
</svg>
