<svg width="7" height="13" viewBox="0 0 7 13" fill="none" xmlns="http://www.w3.org/2000/svg">
<g clip-path="url(#clip0_2503_448)">
<path d="M4.88771 6.5L0.255911 11.4149C0.091335 11.5939 0 11.8282 0 12.0714C0 12.3145 0.091335 12.5488 0.255911 12.7278C0.334596 12.8136 0.430249 12.8821 0.536803 12.929C0.643357 12.9758 0.758485 13 0.874884 13C0.991282 13 1.10641 12.9758 1.21296 12.929C1.31952 12.8821 1.41517 12.8136 1.49386 12.7278L6.74363 7.15698C6.90849 6.97791 7 6.7434 7 6.5C7 6.2566 6.90849 6.02209 6.74363 5.84302L1.49386 0.272157C1.41517 0.18638 1.31952 0.117894 1.21296 0.0710432C1.10641 0.0241926 0.991282 6.77891e-08 0.874884 6.77891e-08C0.758485 6.77891e-08 0.643357 0.0241926 0.536803 0.0710432C0.430249 0.117894 0.334596 0.18638 0.255911 0.272157C0.091335 0.45117 0 0.68547 0 0.92864C0 1.17181 0.091335 1.40611 0.255911 1.58512L4.88771 6.5Z" fill="#BE212A"/>
</g>
<defs>
<clipPath id="clip0_2503_448">
<rect width="7" height="13" fill="white"/>
</clipPath>
</defs>
</svg>
